<?xml version="1.0" encoding="UTF-8"?>
<!DOCTYPE svg PUBLIC "-//W3C//DTD SVG 1.1//EN" "http://www.w3.org/Graphics/SVG/1.1/DTD/svg11.dtd">
<!-- Creator: CorelDRAW -->
<svg xmlns="http://www.w3.org/2000/svg" xml:space="preserve" width="42.446mm" height="5.884mm" version="1.1" style="shape-rendering:geometricPrecision; text-rendering:geometricPrecision; image-rendering:optimizeQuality; fill-rule:evenodd; clip-rule:evenodd"
viewBox="0 0 4244.6 588.4"
 xmlns:xlink="http://www.w3.org/1999/xlink"
 xmlns:xodm="http://www.corel.com/coreldraw/odm/2003">
 <defs>
  <linearGradient id="gradient-golden" x1="0%" y1="0%" x2="100%" y2="100%">
    <stop offset="0%" style="stop-color:#fbbf24;stop-opacity:1" />
    <stop offset="50%" style="stop-color:#f59e0b;stop-opacity:1" />
    <stop offset="100%" style="stop-color:#d97706;stop-opacity:1" />
  </linearGradient>
  <style type="text/css">
   <![CDATA[
    .fil0 {fill:url(#gradient-golden);fill-rule:nonzero}
   ]]>
  </style>
 </defs>
 <g id="Layer_x0020_1">
  <metadata id="CorelCorpID_0Corel-Layer"/>
  <path class="fil0" d="M274.37 588.95c-55.45,0 -104.42,-12.42 -146.75,-37.12 -42.34,-24.55 -75.36,-59.12 -99.06,-103.29 -23.85,-44.17 -35.71,-95.25 -35.71,-153.11 0,-59.26 12.28,-111.05 36.69,-155.22 24.42,-44.17 58.99,-78.6 103.44,-103.01 44.45,-24.41 95.95,-36.69 154.8,-36.69 48.4,0 91.3,8.33 128.41,24.98 37.11,16.79 67.45,40.64 91.02,71.68 23.56,31.05 38.38,68.16 44.45,111.48l-138.29 0c-4.66,-28.64 -18.06,-51.08 -40.22,-67.03 -22.15,-15.94 -50.52,-23.99 -85.37,-23.99 -32.88,0 -61.67,7.34 -86.08,21.88 -24.41,14.53 -43.32,35.27 -56.44,62.09 -13.13,26.81 -19.76,58.56 -19.76,95.25 0,37.11 6.77,69.42 20.46,96.66 13.69,27.23 32.88,48.4 57.86,63.07 24.97,14.82 54.32,22.3 88.19,22.3 24.98,0 47.13,-3.95 66.75,-11.71 19.47,-7.62 34.85,-18.21 46.14,-31.75 11.29,-13.41 16.93,-28.51 16.93,-45.44l0 -16.93 -140.4 0 0 -101.6 177.09 0c31.05,0 54.33,7.33 69.85,22.15 15.53,14.96 23.29,37.11 23.29,66.75l0 220.13 -121.36 0 0 -60.68 -3.53 0c-13.68,23 -33.16,40.36 -58.56,51.79 -25.4,11.57 -56.73,17.36 -93.84,17.36z"/>
  <path id="_1" class="fil0" d="M680.07 580.48l0 -296.33 -63.5 0 0 -127.01 129.82 0 0 84.67 29.63 0c10.87,-30.62 28.51,-53.34 52.92,-68.15 24.41,-14.82 51.79,-22.16 81.84,-22.16l35.99 0 0 112.89 -41.63 0c-34.86,0 -59.83,9.6 -75.07,28.93 -15.38,19.33 -23,44.45 -23,75.49l0 211.67 -127 0z"/>
  <path id="_2" class="fil0" d="M1133.74 588.24c-50.8,0 -90.45,-12.13 -118.82,-36.41 -28.5,-24.13 -42.75,-56.44 -42.75,-96.94 0,-41.91 14.96,-74.22 44.87,-97.08 29.78,-22.72 72.53,-34.15 127.99,-34.15l113.59 0 0 -15.53c0,-38.52 -24.41,-57.85 -73.37,-57.85 -43.32,0 -69.57,14.53 -79.03,43.74l-128.41 0c9.88,-47.97 32.18,-84.24 67.03,-108.65 34.85,-24.41 81.42,-36.69 139.7,-36.69 64.49,0 113.6,14.25 147.46,42.61 33.87,28.51 50.8,70 50.8,124.61l0 137.58 60.68 0 0 127 -129.82 0 0 -70.56 -29.64 0c-14.53,25.4 -33.86,44.74 -57.85,58.14 -23.99,13.41 -54.75,20.18 -92.43,20.18zm19.76 -97.37c20.74,0 38.94,-3.52 54.75,-10.58 15.66,-7.05 28.08,-16.65 36.97,-28.93 8.89,-12.27 13.4,-25.82 13.4,-40.92l0 -2.12 -107.95 0c-36.26,0 -54.32,13.41 -54.32,40.22 0,13.69 5.08,24.13 15.24,31.33 10.02,7.34 23.99,11 41.91,11z"/>
  <path id="_3" class="fil0" d="M1521.09 580.48l0 -296.33 -63.5 0 0 -127.01 129.82 0 0 70.56 29.64 0c16.93,-24.41 37.82,-43.6 62.51,-57.57 24.55,-13.83 56.3,-20.75 94.83,-20.75 60.25,0 106.4,16.23 138.71,48.69 32.17,32.45 48.26,75.92 48.26,130.53l0 251.88 -129.82 0 0 -226.48c0,-29.21 -7.62,-51.23 -22.86,-66.33 -15.38,-15.1 -37.82,-22.57 -67.45,-22.57 -29.64,0 -52.07,7.47 -67.31,22.57 -15.39,15.1 -23.01,37.12 -23.01,66.33l0 226.48 -129.82 0z"/>
  <path id="_4" class="fil0" d="M2187.84 580.48c-32.88,0 -58.42,-8.33 -76.48,-25.12 -18.2,-16.65 -27.23,-42.19 -27.23,-76.48l0 -220.13 -70.56 0 0 -101.61 71.97 0 0 -127 127 0 0 127 93.13 0 0 101.61 -91.72 0 0 220.13 101.6 0 0 101.6 -127.71 0z"/>
  <path id="_5" class="fil0" d="M2621.76 588.95c-78.04,0 -140.27,-17.08 -186.55,-51.23 -46.43,-34 -71.69,-81.7 -75.92,-142.8l135.47 0c5.22,29.63 18.77,51.79 40.92,66.32 22.16,14.54 52.49,21.87 91.02,21.87 34.85,0 60.82,-5.36 78.03,-15.94 17.08,-10.44 25.68,-26.39 25.68,-47.56 0,-16.51 -5.22,-29.35 -15.8,-38.52 -10.58,-9.17 -28.22,-16.23 -52.63,-21.45l-120.65 -25.4c-54.61,-11.71 -94.97,-30.76 -121.36,-57.15 -26.39,-26.39 -39.51,-60.96 -39.51,-103.72 0,-54.04 20.6,-96.38 61.8,-127 41.07,-30.62 97.23,-45.86 168.21,-45.86 71.54,0 129.12,15.95 172.86,47.98 43.75,32.03 68.02,76.62 72.67,134.06l-135.46 0c-13.13,-53.63 -52.5,-80.44 -117.83,-80.44 -28.65,0 -51.22,5.08 -67.73,15.1 -16.51,10.16 -24.7,24.69 -24.7,43.46 0,28.23 20.18,46.57 60.68,55.04l126.29 26.1c56.87,11.71 98.36,31.05 124.18,57.86 25.83,26.81 38.81,63.22 38.81,109.36 0,56.87 -20.6,101.18 -61.67,132.64 -41.2,31.47 -100.19,47.28 -176.81,47.28z"/>
  <path id="_6" class="fil0" d="M3131.18 588.95c-46.57,0 -87.07,-9.03 -121.36,-27.24 -34.29,-18.06 -60.82,-43.74 -79.3,-76.9 -18.63,-33.16 -27.94,-72.25 -27.94,-117.41 0,-45.15 9.03,-84.1 27.23,-116.84 18.06,-32.6 43.89,-57.85 77.61,-75.49 33.59,-17.64 73.24,-26.39 118.82,-26.39 45.15,0 83.96,8.61 116.41,25.68 32.46,17.22 57.3,41.77 74.51,73.8 17.08,32.03 25.68,70.28 25.68,115.01l0 41.63 -315.38 0c5.22,27.23 16.51,47.83 33.87,61.66 17.35,13.97 40.5,20.89 69.14,20.89 23,0 41.06,-3.67 54.05,-11.01 12.84,-7.2 22.15,-18.91 27.8,-34.85l129.82 0c-8.89,46.14 -32.03,82.26 -69.15,108.23 -37.11,26.1 -84.38,39.23 -141.81,39.23zm-101.6 -268.82l189.09 0c-4.24,-23.57 -13.97,-41.06 -29.21,-52.64 -15.39,-11.43 -36.13,-17.21 -62.52,-17.21 -25.82,0 -46.99,5.93 -63.5,17.64 -16.51,11.71 -27.8,29.21 -33.86,52.21z"/>
  <path id="_7" class="fil0" d="M3549.57 580.48c-32.88,0 -58.42,-8.33 -76.48,-25.12 -18.2,-16.65 -27.23,-42.19 -27.23,-76.48l0 -220.13 -70.56 0 0 -101.61 71.97 0 0 -127 127 0 0 127 93.13 0 0 101.61 -91.72 0 0 220.13 101.6 0 0 101.6 -127.71 0z"/>
  <path id="_8" class="fil0" d="M3919.28 588.24c-60.67,0 -106.82,-15.66 -138.29,-46.99 -31.46,-31.18 -47.27,-73.94 -47.27,-127.99l0 -256.12 129.82 0 0 230.72c0,28.65 7.2,49.96 21.59,63.79 14.26,13.97 35.99,20.88 65.2,20.88 30.62,0 53.9,-7.62 69.85,-23 15.94,-15.24 23.99,-37.26 23.99,-65.9l0 -226.49 129.82 0 0 296.34 63.5 0 0 127 -129.82 0 0 -70.56 -29.64 0c-17.35,25.4 -38.1,44.74 -62.09,58.14 -23.98,13.41 -56.16,20.18 -96.66,20.18z"/>
 </g>
</svg>